<?xml version="1.0" encoding="UTF-8" standalone="no"?>
<!-- Created with Inkscape (http://www.inkscape.org/) -->

<svg
   width="123.72239mm"
   height="89.96759mm"
   viewBox="0 0 123.7224 89.96759"
   version="1.1"
   id="svg1040"
   inkscape:version="0.92.4 (f8dce91, 2019-08-02)"
   sodipodi:docname="index_user_guide.svg"
   xmlns:inkscape="http://www.inkscape.org/namespaces/inkscape"
   xmlns:sodipodi="http://sodipodi.sourceforge.net/DTD/sodipodi-0.dtd"
   xmlns="http://www.w3.org/2000/svg"
   xmlns:svg="http://www.w3.org/2000/svg"
   xmlns:rdf="http://www.w3.org/1999/02/22-rdf-syntax-ns#"
   xmlns:cc="http://creativecommons.org/ns#"
   xmlns:dc="http://purl.org/dc/elements/1.1/">
  <defs
     id="defs1034" />
  <sodipodi:namedview
     id="base"
     pagecolor="#ffffff"
     bordercolor="#666666"
     borderopacity="1.0"
     inkscape:pageopacity="0.0"
     inkscape:pageshadow="2"
     inkscape:zoom="0.35"
     inkscape:cx="332.26618"
     inkscape:cy="83.744004"
     inkscape:document-units="mm"
     inkscape:current-layer="layer1"
     showgrid="false"
     fit-margin-top="0"
     fit-margin-left="0"
     fit-margin-right="0"
     fit-margin-bottom="0"
     inkscape:window-width="930"
     inkscape:window-height="472"
     inkscape:window-x="2349"
     inkscape:window-y="267"
     inkscape:window-maximized="0"
     inkscape:showpageshadow="0"
     inkscape:pagecheckerboard="0"
     inkscape:deskcolor="#505050" />
  <metadata
     id="metadata1037">
    <rdf:RDF>
      <cc:Work
         rdf:about="">
        <dc:format>image/svg+xml</dc:format>
        <dc:type
           rdf:resource="http://purl.org/dc/dcmitype/StillImage" />
        <dc:title />
      </cc:Work>
    </rdf:RDF>
  </metadata>
  <g
     inkscape:label="Layer 1"
     inkscape:groupmode="layer"
     id="layer1"
     transform="translate(-46.293499,-17.549082)">
    <path
       style="fill:#459db9;fill-opacity:1;stroke-width:0.204835"
       d="m 48.650048,107.39335 c -0.80428,-0.24884 -1.71513,-1.11296 -2.07107,-1.96486 -0.23905,-0.57214 -0.28453,-6.281038 -0.28453,-35.720986 0,-38.274546 -0.079,-35.840728 1.19849,-36.91568 0.58869,-0.495345 4.63766,-2.187548 8.47998,-3.544073 l 1.58749,-0.560453 v -3.309822 c 0,-3.025538 0.0396,-3.388179 0.46086,-4.222122 0.68808,-1.362003 1.38671,-1.714455 4.60319,-2.322195 4.12797,-0.779966 5.13304,-0.912766 8.81544,-1.16476 11.80964,-0.808168 22.80911,2.509277 30.965442,9.3392 1.7504,1.465747 3.84086,3.5635 5.0903,5.108065 l 0.65912,0.814805 0.65911,-0.814805 c 1.24943,-1.544565 3.33988,-3.642318 5.09029,-5.108065 8.15633,-6.829923 19.15579,-10.147368 30.96544,-9.3392 3.68239,0.251994 4.68748,0.384794 8.81544,1.16476 3.21647,0.60774 3.91511,0.960192 4.60318,2.322195 0.4213,0.833943 0.46087,1.196584 0.46087,4.222122 v 3.309822 l 1.58748,0.560453 c 4.10165,1.448077 7.98852,3.072753 8.5259,3.563743 1.22643,1.120567 1.15258,-1.245868 1.15258,36.927177 0,34.567589 -0.005,35.083149 -0.40663,35.903989 -0.22365,0.45804 -0.73729,1.05665 -1.14143,1.33024 -1.22281,0.82783 -2.17721,0.70485 -5.86813,-0.7561 -9.19595,-3.63998 -18.95601,-6.384428 -26.79133,-7.533528 -3.02827,-0.44412 -9.26189,-0.61543 -11.77821,-0.3237 -5.19357,0.60212 -8.73611,2.055268 -11.70004,4.799358 -0.6845,0.63371 -1.46614,1.23646 -1.73698,1.33942 -0.63859,0.2428 -4.23652,0.2428 -4.87511,0 -0.27083,-0.10296 -1.05247,-0.70571 -1.73696,-1.33942 -2.96395,-2.74409 -6.506483,-4.197238 -11.700061,-4.799358 -2.516312,-0.29173 -8.749941,-0.12042 -11.778201,0.3237 -7.78194,1.14127 -17.39965,3.839068 -26.73341,7.498828 -3.38325,1.32658 -4.15525,1.50926 -5.11851,1.21125 z m 4.2107,-5.34052 c 5.86759,-2.298578 14.40398,-4.922693 20.2018,-6.210063 6.31584,-1.402418 8.5236,-1.646248 14.91592,-1.647338 4.68699,-7.94e-4 6.013661,0.0632 7.257809,0.3497 0.837332,0.19286 1.561052,0.312028 1.60828,0.264819 0.147111,-0.147119 -1.803289,-1.307431 -4.154879,-2.471801 -8.12511,-4.023029 -18.27311,-4.986568 -29.0861,-2.761718 -1.09536,0.22538 -2.32708,0.40827 -2.73715,0.406418 -1.12787,-0.005 -2.3054,-0.76382 -2.84516,-1.8332 l -0.46086,-0.913098 V 60.219442 33.202362 l -0.56331,0.138329 c -0.30981,0.07608 -1.89985,0.665075 -3.5334,1.308881 -2.27551,0.896801 -2.96414,1.252878 -2.94452,1.522563 0.014,0.193604 0.0372,15.284513 0.0512,33.535345 0.014,18.250839 0.0538,33.18332 0.0884,33.18332 0.0346,0 1.02543,-0.3771 2.20198,-0.83801 z m 113.006992,-32.697214 -0.0518,-33.535203 -3.17495,-1.272156 c -1.74623,-0.699685 -3.33627,-1.278755 -3.53341,-1.286819 -0.33966,-0.01389 -0.35847,1.401778 -0.35847,26.980216 v 26.994863 l -0.46087,0.913112 c -0.53976,1.06939 -1.71729,1.828088 -2.84515,1.833189 -0.41008,0.0021 -1.6418,-0.181031 -2.73716,-0.406421 -11.8882,-2.446089 -22.84337,-1.046438 -31.49102,4.02332 -1.68175,0.985941 -2.21675,1.467501 -1.36534,1.228942 1.57518,-0.441362 4.99059,-0.73864 8.52486,-0.742011 5.95441,-0.005 11.43046,0.791951 19.10874,2.78333 3.9516,1.024874 12.1555,3.687452 15.6699,5.085702 1.23926,0.49306 2.36869,0.90517 2.50985,0.9158 0.20489,0.0155 0.2462,-6.745892 0.20483,-33.515864 z M 106.10639,67.121839 V 37.29309 l -0.95972,-1.357442 c -1.38052,-1.952627 -5.376263,-5.847994 -7.643361,-7.45136 -3.778692,-2.672401 -9.063392,-4.943324 -13.672511,-5.875304 -3.19731,-0.646503 -5.23069,-0.833103 -9.05886,-0.831312 -4.37716,0.0021 -7.70223,0.349169 -11.83461,1.235469 l -1.07538,0.230645 v 31.242342 c 0,26.565778 0.0426,31.226011 0.28429,31.133261 0.15637,-0.06 1.42379,-0.297169 2.81648,-0.527026 12.37657,-2.042634 23.21658,-0.346861 32.521639,5.087596 2.10018,1.226558 5.202023,3.618878 6.880943,5.30692 0.78861,0.792909 1.50298,1.446609 1.58747,1.452679 0.0845,0.006 0.15362,-13.411893 0.15362,-29.817719 z m 5.80221,28.3766 c 6.21476,-6.141601 15.08488,-10.061509 25.02553,-11.05933 4.26242,-0.427849 11.57992,-0.0054 16.01766,0.924912 0.75932,0.15916 1.45259,0.244888 1.54058,0.190498 0.088,-0.05434 0.16003,-14.060382 0.16003,-31.124436 V 23.404535 l -0.52136,-0.198219 c -0.66893,-0.254325 -4.77649,-0.95482 -7.15998,-1.221048 -2.41372,-0.269605 -8.55985,-0.266589 -10.75923,0.0052 -6.45811,0.798299 -12.58409,3.083792 -17.40565,6.49374 -2.26709,1.603366 -6.26283,5.498733 -7.64336,7.45136 l -0.95972,1.357438 v 29.828747 c 0,16.405812 0.0532,29.828746 0.11802,29.828746 0.065,0 0.77928,-0.65347 1.58748,-1.452149 z"
       id="path845"
       inkscape:connector-curvature="0"
       sodipodi:nodetypes="csscccscsssscsssssscscsccsccsccscsscccccccscccccccccsccscscscccscccsccssccsscccscccccsccccsccscsccsscc" />
  </g>
</svg>
